<svg id="visual" viewBox="0 0 960 540" width="960" height="540" xmlns="http://www.w3.org/2000/svg" xmlns:xlink="http://www.w3.org/1999/xlink" version="1.1"><rect x="0" y="0" width="960" height="540" fill="#3B3B3B"></rect><defs><linearGradient id="grad1_0" x1="43.8%" y1="0%" x2="100%" y2="100%"><stop offset="14.444444444444446%" stop-color="#949392" stop-opacity="1"></stop><stop offset="85.55555555555554%" stop-color="#949392" stop-opacity="1"></stop></linearGradient></defs><defs><linearGradient id="grad1_1" x1="43.8%" y1="0%" x2="100%" y2="100%"><stop offset="14.444444444444446%" stop-color="#949392" stop-opacity="1"></stop><stop offset="85.55555555555554%" stop-color="#666565" stop-opacity="1"></stop></linearGradient></defs><defs><linearGradient id="grad1_2" x1="43.8%" y1="0%" x2="100%" y2="100%"><stop offset="14.444444444444446%" stop-color="#3b3b3b" stop-opacity="1"></stop><stop offset="85.55555555555554%" stop-color="#666565" stop-opacity="1"></stop></linearGradient></defs><defs><linearGradient id="grad2_0" x1="0%" y1="0%" x2="56.3%" y2="100%"><stop offset="14.444444444444446%" stop-color="#949392" stop-opacity="1"></stop><stop offset="85.55555555555554%" stop-color="#949392" stop-opacity="1"></stop></linearGradient></defs><defs><linearGradient id="grad2_1" x1="0%" y1="0%" x2="56.3%" y2="100%"><stop offset="14.444444444444446%" stop-color="#666565" stop-opacity="1"></stop><stop offset="85.55555555555554%" stop-color="#949392" stop-opacity="1"></stop></linearGradient></defs><defs><linearGradient id="grad2_2" x1="0%" y1="0%" x2="56.3%" y2="100%"><stop offset="14.444444444444446%" stop-color="#666565" stop-opacity="1"></stop><stop offset="85.55555555555554%" stop-color="#3b3b3b" stop-opacity="1"></stop></linearGradient></defs><g transform="translate(960, 0)"><path d="M0 486C-50.7 448.3 -101.4 410.6 -162.6 392.6C-223.9 374.7 -295.8 376.5 -343.7 343.7C-391.5 310.8 -415.4 243.3 -435.1 180.2C-454.9 117.2 -470.4 58.6 -486 0L0 0Z" fill="#50504f"></path><path d="M0 324C-33.8 298.9 -67.6 273.7 -108.4 261.8C-149.3 249.8 -197.2 251 -229.1 229.1C-261 207.2 -276.9 162.2 -290.1 120.2C-303.2 78.1 -313.6 39.1 -324 0L0 0Z" fill="#7c7c7b"></path><path d="M0 162C-16.9 149.4 -33.8 136.9 -54.2 130.9C-74.6 124.9 -98.6 125.5 -114.6 114.6C-130.5 103.6 -138.5 81.1 -145 60.1C-151.6 39.1 -156.8 19.5 -162 0L0 0Z" fill="#949392"></path></g><g transform="translate(0, 540)"><path d="M0 -486C66.9 -479.3 133.8 -472.6 182.5 -440.7C231.3 -408.8 261.9 -351.7 308.3 -308.3C354.7 -264.9 416.8 -235.1 449 -186C481.2 -136.9 483.6 -68.4 486 0L0 0Z" fill="#50504f"></path><path d="M0 -324C44.6 -319.5 89.2 -315.1 121.7 -293.8C154.2 -272.5 174.6 -234.5 205.5 -205.5C236.4 -176.6 277.8 -156.7 299.3 -124C320.8 -91.3 322.4 -45.6 324 0L0 0Z" fill="#7c7c7b"></path><path d="M0 -162C22.3 -159.8 44.6 -157.5 60.8 -146.9C77.1 -136.3 87.3 -117.2 102.8 -102.8C118.2 -88.3 138.9 -78.4 149.7 -62C160.4 -45.6 161.2 -22.8 162 0L0 0Z" fill="#949392"></path></g></svg>