<svg id="visual" viewBox="0 0 1006 66" width="1006" height="66" xmlns="http://www.w3.org/2000/svg" xmlns:xlink="http://www.w3.org/1999/xlink" version="1.1"><g stroke-width="1" stroke-linejoin="bevel"><path d="M525 17L561.9 0L531 0Z" fill="#aeadac" stroke="#aeadac"></path><path d="M525 17L574.9 58L561.9 0Z" fill="#949392" stroke="#949392"></path><path d="M525 17L524 66L574.9 58Z" fill="#c4c3c2" stroke="#c4c3c2"></path><path d="M574.9 58L610.8 12L561.9 0Z" fill="#bebdbc" stroke="#bebdbc"></path><path d="M524 66L587.9 66L574.9 58Z" fill="#a9a8a7" stroke="#a9a8a7"></path><path d="M574.9 58L587.9 66L610.8 12Z" fill="#a9a8a7" stroke="#a9a8a7"></path><path d="M631.8 66L629.8 0L610.8 12Z" fill="#949392" stroke="#949392"></path><path d="M610.8 12L629.8 0L561.9 0Z" fill="#aeadac" stroke="#aeadac"></path><path d="M531 0L460.1 25L525 17Z" fill="#b9b8b7" stroke="#b9b8b7"></path><path d="M525 17L460.1 25L524 66Z" fill="#b3b2b1" stroke="#b3b2b1"></path><path d="M587.9 66L631.8 66L610.8 12Z" fill="#a4a3a2" stroke="#a4a3a2"></path><path d="M460.1 25L459.1 66L524 66Z" fill="#b3b2b1" stroke="#b3b2b1"></path><path d="M531 0L440.1 0L460.1 25Z" fill="#b9b8b7" stroke="#b9b8b7"></path><path d="M460.1 25L377.3 66L459.1 66Z" fill="#949392" stroke="#949392"></path><path d="M631.8 66L698.6 19L629.8 0Z" fill="#a4a3a2" stroke="#a4a3a2"></path><path d="M698.6 19L699.6 0L629.8 0Z" fill="#bebdbc" stroke="#bebdbc"></path><path d="M631.8 66L701.6 66L698.6 19Z" fill="#949392" stroke="#949392"></path><path d="M698.6 19L760.5 0L699.6 0Z" fill="#b3b2b1" stroke="#b3b2b1"></path><path d="M440.1 0L377.3 66L460.1 25Z" fill="#c4c3c2" stroke="#c4c3c2"></path><path d="M440.1 0L364.3 46L377.3 66Z" fill="#b3b2b1" stroke="#b3b2b1"></path><path d="M370.3 0L364.3 46L440.1 0Z" fill="#949392" stroke="#949392"></path><path d="M701.6 66L740.5 66L698.6 19Z" fill="#a9a8a7" stroke="#a9a8a7"></path><path d="M740.5 66L760.5 0L698.6 19Z" fill="#949392" stroke="#949392"></path><path d="M740.5 66L779.5 61L760.5 0Z" fill="#bebdbc" stroke="#bebdbc"></path><path d="M370.3 0L305.4 39L364.3 46Z" fill="#a4a3a2" stroke="#a4a3a2"></path><path d="M364.3 46L297.4 66L377.3 66Z" fill="#b3b2b1" stroke="#b3b2b1"></path><path d="M370.3 0L293.4 0L305.4 39Z" fill="#a9a8a7" stroke="#a9a8a7"></path><path d="M255.5 33L297.4 66L305.4 39Z" fill="#b9b8b7" stroke="#b9b8b7"></path><path d="M305.4 39L297.4 66L364.3 46Z" fill="#c4c3c2" stroke="#c4c3c2"></path><path d="M779.5 61L800.4 39L760.5 0Z" fill="#b9b8b7" stroke="#b9b8b7"></path><path d="M740.5 66L808.4 66L779.5 61Z" fill="#a9a8a7" stroke="#a9a8a7"></path><path d="M779.5 61L808.4 66L800.4 39Z" fill="#c9c8c7" stroke="#c9c8c7"></path><path d="M800.4 39L830.4 0L760.5 0Z" fill="#a9a8a7" stroke="#a9a8a7"></path><path d="M855.3 0L830.4 0L876.3 66Z" fill="#999897" stroke="#999897"></path><path d="M293.4 0L255.5 33L305.4 39Z" fill="#c4c3c2" stroke="#c4c3c2"></path><path d="M293.4 0L252.5 0L255.5 33Z" fill="#b3b2b1" stroke="#b3b2b1"></path><path d="M876.3 66L830.4 0L800.4 39Z" fill="#b9b8b7" stroke="#b9b8b7"></path><path d="M212.6 66L225.5 66L199.6 32Z" fill="#b9b8b7" stroke="#b9b8b7"></path><path d="M255.5 33L225.5 66L297.4 66Z" fill="#949392" stroke="#949392"></path><path d="M808.4 66L876.3 66L800.4 39Z" fill="#c9c8c7" stroke="#c9c8c7"></path><path d="M199.6 32L225.5 66L255.5 33Z" fill="#999897" stroke="#999897"></path><path d="M252.5 0L199.6 32L255.5 33Z" fill="#999897" stroke="#999897"></path><path d="M252.5 0L190.6 0L199.6 32Z" fill="#c9c8c7" stroke="#c9c8c7"></path><path d="M876.3 66L908.3 49L855.3 0Z" fill="#b3b2b1" stroke="#b3b2b1"></path><path d="M949.1 66L945.1 31L908.3 49Z" fill="#999897" stroke="#999897"></path><path d="M908.3 49L945.1 31L855.3 0Z" fill="#999897" stroke="#999897"></path><path d="M876.3 66L949.1 66L908.3 49Z" fill="#b3b2b1" stroke="#b3b2b1"></path><path d="M945.1 31L960.1 0L855.3 0Z" fill="#c4c3c2" stroke="#c4c3c2"></path><path d="M1006 0L960.1 0L1006 59Z" fill="#9e9d9c" stroke="#9e9d9c"></path><path d="M190.6 0L128.8 56L199.6 32Z" fill="#bebdbc" stroke="#bebdbc"></path><path d="M199.6 32L128.8 56L212.6 66Z" fill="#b9b8b7" stroke="#b9b8b7"></path><path d="M128.8 56L125.8 66L212.6 66Z" fill="#b3b2b1" stroke="#b3b2b1"></path><path d="M190.6 0L118.8 0L128.8 56Z" fill="#b9b8b7" stroke="#b9b8b7"></path><path d="M128.8 56L77.9 66L125.8 66Z" fill="#c4c3c2" stroke="#c4c3c2"></path><path d="M1006 59L960.1 0L945.1 31Z" fill="#a9a8a7" stroke="#a9a8a7"></path><path d="M118.8 0L82.9 28L128.8 56Z" fill="#b3b2b1" stroke="#b3b2b1"></path><path d="M949.1 66L1006 59L945.1 31Z" fill="#a9a8a7" stroke="#a9a8a7"></path><path d="M949.1 66L1006 66L1006 59Z" fill="#9e9d9c" stroke="#9e9d9c"></path><path d="M86.9 0L82.9 28L118.8 0Z" fill="#c9c8c7" stroke="#c9c8c7"></path><path d="M82.9 28L77.9 66L128.8 56Z" fill="#b3b2b1" stroke="#b3b2b1"></path><path d="M0 0L0 17L82.9 28Z" fill="#949392" stroke="#949392"></path><path d="M82.9 28L0 66L77.9 66Z" fill="#a4a3a2" stroke="#a4a3a2"></path><path d="M86.9 0L0 0L82.9 28Z" fill="#a4a3a2" stroke="#a4a3a2"></path><path d="M0 17L0 66L82.9 28Z" fill="#a9a8a7" stroke="#a9a8a7"></path></g></svg>